<svg xmlns="http://www.w3.org/2000/svg" viewBox="0 0 512 512" role="img" aria-labelledby="title desc">
  <title id="title">Blackjack</title>
  <desc id="desc">Green casino-style badge with a spade symbol.</desc>
  <defs>
    <linearGradient id="bg" x1="0" y1="0" x2="1" y2="1">
      <stop offset="0%" stop-color="#1f7a45" />
      <stop offset="100%" stop-color="#0c2416" />
    </linearGradient>
    <radialGradient id="shine" cx="0.3" cy="0.25" r="0.8">
      <stop offset="0%" stop-color="#ffffff" stop-opacity="0.28" />
      <stop offset="100%" stop-color="#ffffff" stop-opacity="0" />
    </radialGradient>
  </defs>
  <rect width="512" height="512" rx="112" fill="url(#bg)" />
  <circle cx="186" cy="166" r="172" fill="url(#shine)" />
  <circle cx="256" cy="256" r="172" fill="none" stroke="#f7e6b1" stroke-width="18" opacity="0.9" />
  <path fill="#f7e6b1" d="M256 118c-42 54-84 85-84 136 0 34 28 59 60 59 18 0 34-8 44-21v36h-22c-10 0-18 8-18 18v17h104v-17c0-10-8-18-18-18h-22v-36c10 13 26 21 44 21 32 0 60-25 60-59 0-51-42-82-84-136-4-5-12-5-16 0z" />
  <path fill="#0c2416" d="M256 154c31 43 60 67 60 99 0 18-14 32-32 32-18 0-33-12-45-31-12 19-27 31-45 31-18 0-32-14-32-32 0-32 29-56 60-99 6-9 18-9 24 0z" opacity="0.3" />
</svg>